<svg width="47" height="49" viewBox="0 0 47 49" fill="none" xmlns="http://www.w3.org/2000/svg">
<path d="M42.6596 0.29126H4.25619C3.23767 0.29126 2.26086 0.695866 1.54066 1.41607C0.820454 2.13628 0.415848 3.11308 0.415848 4.13161V18.2377C0.415848 39.7484 18.6143 46.8819 22.2578 48.0916C23.0357 48.3578 23.8801 48.3578 24.658 48.0916C28.3064 46.8795 46.5 39.746 46.5 18.2353V4.13161C46.5 3.11308 46.0954 2.13628 45.3752 1.41607C44.655 0.695866 43.6782 0.29126 42.6596 0.29126ZM31.1386 23.3333H25.3781V29.0939C25.3781 29.6031 25.1758 30.0915 24.8157 30.4516C24.4556 30.8117 23.9672 31.014 23.4579 31.014C22.9487 31.014 22.4603 30.8117 22.1002 30.4516C21.7401 30.0915 21.5377 29.6031 21.5377 29.0939V23.3333H15.7772C15.268 23.3333 14.7796 23.131 14.4195 22.7709C14.0594 22.4108 13.8571 21.9224 13.8571 21.4132C13.8571 20.9039 14.0594 20.4155 14.4195 20.0554C14.7796 19.6953 15.268 19.493 15.7772 19.493H21.5377V13.7325C21.5377 13.2232 21.7401 12.7348 22.1002 12.3747C22.4603 12.0146 22.9487 11.8123 23.4579 11.8123C23.9672 11.8123 24.4556 12.0146 24.8157 12.3747C25.1758 12.7348 25.3781 13.2232 25.3781 13.7325V19.493H31.1386C31.6479 19.493 32.1363 19.6953 32.4964 20.0554C32.8565 20.4155 33.0588 20.9039 33.0588 21.4132C33.0588 21.9224 32.8565 22.4108 32.4964 22.7709C32.1363 23.131 31.6479 23.3333 31.1386 23.3333Z" fill="#00875F"/>
</svg>
