<svg width="49" height="49" viewBox="0 0 49 49" fill="none" xmlns="http://www.w3.org/2000/svg">
<path d="M48.3879 36.5503C47.9599 39.8024 46.3628 42.7876 43.8948 44.9482C41.4268 47.1088 38.2567 48.2971 34.9766 48.2912C15.9204 48.2912 0.41622 32.7871 0.41622 13.7309C0.41034 10.4508 1.59868 7.28066 3.75929 4.81265C5.9199 2.34464 8.90503 0.747515 12.1571 0.319574C12.9795 0.21916 13.8123 0.387404 14.5312 0.799191C15.2501 1.21098 15.8165 1.84422 16.146 2.6044L21.2148 13.9205V13.9493C21.467 14.5312 21.5712 15.1665 21.518 15.7985C21.4648 16.4304 21.2559 17.0394 20.91 17.5709C20.8668 17.6357 20.8212 17.6957 20.7732 17.7557L15.7764 23.679C17.574 27.3318 21.3948 31.1191 25.0957 32.9215L30.9373 27.951C30.9947 27.9028 31.0548 27.8579 31.1173 27.8166C31.6484 27.4624 32.2595 27.2462 32.8952 27.1875C33.5309 27.1288 34.1712 27.2296 34.7582 27.4806L34.7894 27.495L46.0959 32.5615C46.8574 32.8897 47.4922 33.4557 47.9053 34.1747C48.3185 34.8937 48.4878 35.7271 48.3879 36.5503Z" fill="#00875F"/>
</svg>
